<?xml version="1.0" encoding="utf-8"?>
<!-- Generator: Adobe Illustrator 24.3.0, SVG Export Plug-In . SVG Version: 6.00 Build 0)  -->
<svg version="1.1" id="Layer_1" xmlns="http://www.w3.org/2000/svg" xmlns:xlink="http://www.w3.org/1999/xlink" x="0px" y="0px"
	 viewBox="0 0 512 512" style="enable-background:new 0 0 512 512;" xml:space="preserve">
<style type="text/css">
	.st0{fill:#0090BF;}
</style>
<g id="XMLID_1_">
	<g id="XMLID_66_">
		<path id="XMLID_67_" class="st0" d="M115.59,182.08h34.37V329.5h-34.37v-15.43c-15.15,17.53-33.53,19.92-44.19,19.92
			c-45.45,0-71.4-37.87-71.4-78.41c0-48.11,32.96-77.57,71.82-77.57c10.8,0,29.88,2.81,43.77,21.04V182.08z M35.35,256.56
			c0,25.53,15.99,46.99,40.96,46.99c21.6,0,41.8-15.85,41.8-46.57c0-32.26-19.92-47.69-41.8-47.69
			C51.34,209.15,35.35,230.19,35.35,256.56z M190.91,182.08h34.37v13.19c3.93-4.49,9.54-9.54,14.31-12.34
			c6.73-3.93,13.19-4.91,21.04-4.91c8.42,0,17.53,1.26,27.07,6.87l-14.03,31.14c-7.86-4.91-14.03-5.19-17.53-5.19
			c-7.29,0-14.73,1.12-21.46,8c-9.54,10.24-9.54,24.27-9.54,33.95v76.45h-34.37L190.91,182.08z M309.58,182.08h34.37v13.61
			c11.5-14.03,25.11-17.53,36.33-17.53c15.43,0,29.88,7.29,38.15,21.6c12.34-17.53,30.72-21.6,43.77-21.6
			c17.96,0,33.53,8.42,41.94,23.15c2.81,4.91,7.86,15.85,7.86,37.17v91.18h-34.37v-81.22c0-16.41-1.68-23.15-3.23-26.23
			c-2.1-5.61-7.29-13.05-19.64-13.05c-8.42,0-15.85,4.49-20.34,10.8c-6.03,8.42-6.73,21.04-6.73,33.53v76.03h-34.37v-81.22
			c0-16.41-1.68-23.15-3.23-26.23c-2.1-5.61-7.29-13.05-19.64-13.05c-8.42,0-15.85,4.49-20.34,10.8
			c-6.03,8.42-6.73,21.04-6.73,33.53v76.03h-33.53V182.08H309.58z"/>
	</g>
</g>
</svg>
