<?xml version="1.0" encoding="iso-8859-1"?>
<!-- Uploaded to: SVG Repo, www.svgrepo.com, Generator: SVG Repo Mixer Tools -->
<svg version="1.1" id="Layer_1" xmlns="http://www.w3.org/2000/svg" xmlns:xlink="http://www.w3.org/1999/xlink" 
	 viewBox="0 0 512 512" xml:space="preserve">
<path style="fill:#61ACD2;" d="M498.674,124.493v357.815c0,8.264-6.699,14.963-14.963,14.963H29.692
	c-8.264,0-14.963-6.699-14.963-14.963V28.289c0-8.264,6.699-14.963,14.963-14.963h357.226L498.674,124.493z"/>
<rect x="140.975" y="13.326" style="fill:#EFEFEF;" width="217.425" height="154.301"/>
<rect x="100.997" y="280.548" style="fill:#F4A026;" width="308.603" height="72.942"/>
<rect x="100.997" y="353.49" style="fill:#EFEFEF;" width="308.603" height="71.54"/>
<rect x="100.997" y="425.03" style="fill:#F4A026;" width="308.603" height="72.942"/>
<path d="M508.217,114.548L396.636,3.731C394.007,1.117,390.625,0,386.918,0H29.692C13.706,0,0,12.303,0,28.289v454.019
	C0,498.294,13.706,512,29.692,512h454.019C499.697,512,512,498.294,512,482.308V124.493C512,120.76,510.862,117.181,508.217,114.548
	z M343.671,28.055v126.247h-28.055V28.055H343.671z M287.562,28.055v126.247h-133.26V28.055H287.562z M115.025,367.518h280.548
	v43.485H115.025V367.518z M395.573,339.463H115.025v-44.888h280.548V339.463z M115.025,483.945v-44.888h280.548v44.888H115.025z
	 M483.945,482.308c0,0.516,0.282,1.637-0.234,1.637h-60.084V279.847c0-7.746-5.58-13.326-13.326-13.326H101.699
	c-7.746,0-14.729,5.58-14.729,13.326v204.099H29.692c-0.516,0-1.637-1.121-1.637-1.637V28.289c0-0.516,1.121-0.234,1.637-0.234
	h96.555v139.573c0,7.746,6.983,14.729,14.729,14.729H358.4c7.746,0,13.326-6.983,13.326-14.729V28.055h9.403l102.817,102.27V482.308
	z"/>
</svg>