<?xml version="1.0" encoding="utf-8"?>
<!-- Generator: Adobe Illustrator 21.0.0, SVG Export Plug-In . SVG Version: 6.00 Build 0)  -->
<svg version="1.1" id="Layer_1" xmlns="http://www.w3.org/2000/svg" xmlns:xlink="http://www.w3.org/1999/xlink" x="0px" y="0px"
	 viewBox="0 0 512 512" style="enable-background:new 0 0 512 512;" xml:space="preserve">
<style type="text/css">
	.st0{fill:#FF9800;}
	.st1{fill:#4CAF50;}
	.st2{fill:#37474F;}
</style>
<g>
	<polygon class="st0" points="512,179.2 512,128 384,128 384,0 332.8,0 332.8,128 281.6,128 281.6,0 230.4,0 230.4,128 179.2,128 
		179.2,0 128,0 128,128 0,128 0,179.2 128,179.2 128,230.4 0,230.4 0,281.6 128,281.6 128,332.8 0,332.8 0,384 128,384 128,512 
		179.2,512 179.2,384 230.4,384 230.4,512 281.6,512 281.6,384 332.8,384 332.8,512 384,512 384,384 512,384 512,332.8 384,332.8 
		384,281.6 512,281.6 512,230.4 384,230.4 384,179.2 	"/>
	<path class="st1" d="M51.2,102.4v307.2c0,28.2,23,51.2,51.2,51.2h307.2c28.2,0,51.2-23,51.2-51.2V102.4c0-28.2-23-51.2-51.2-51.2
		H102.4C74.2,51.2,51.2,74.2,51.2,102.4z"/>
	<path class="st2" d="M345.6,345.6H166.4c-14.1,0-25.6-11.5-25.6-25.6V192c0-14.1,11.5-25.6,25.6-25.6h179.2
		c14.1,0,25.6,11.5,25.6,25.6v128C371.2,334.1,359.7,345.6,345.6,345.6z"/>
</g>
</svg>
