<?xml version="1.0" encoding="utf-8"?>
<!-- Generator: Adobe Illustrator 24.1.1, SVG Export Plug-In . SVG Version: 6.00 Build 0)  -->
<svg version="1.1" id="Layer_1" xmlns="http://www.w3.org/2000/svg" xmlns:xlink="http://www.w3.org/1999/xlink" x="0px" y="0px"
	 viewBox="0 0 512 512" style="enable-background:new 0 0 512 512;" xml:space="preserve">
<style type="text/css">
	.st0{fill:#C75C5C;}
	.st1{fill:#A65050;}
	.st2{fill:#FFFFFF;}
</style>
<g id="XMLID_1_">
	<path id="XMLID_3_" class="st0" d="M256,0c141,0,256,115,256,256S397,512,256,512S0,397,0,256S115,0,256,0"/>
	<path id="XMLID_4_" class="st1" d="M318.2,144.1c-5.5,0-11,3.2-14.2,8.7c-3.9,7.1-1.6,17.3,6.3,21.3c36.2,19.7,57.5,56.7,57.5,97.7
		c0,61.4-50.4,111.9-111.9,111.9s-111.9-50.4-111.9-111.9c0-39.4,21.3-77.2,55.1-96.9c7.1-3.9,10.2-13.4,5.5-21.3
		c-2.4-4.7-7.9-7.9-13.4-7.9c-2.4,0-5.5,0.8-7.9,2.4c-44.1,26-70.9,72.5-70.9,123.7c0,79.6,64.6,144.1,144.1,144.1
		s144.1-64.6,144.1-144.1c0-52-28.4-100-74-125.2C323,144.9,320.6,144.1,318.2,144.1"/>
	<path id="XMLID_5_" class="st1" d="M256,96.1c-8.7,0-15.8,7.1-15.8,15.8v159.9c0,8.7,7.1,15.8,15.8,15.8c8.7,0,15.8-7.1,15.8-15.8
		V111.9C271.8,103.2,264.7,96.1,256,96.1"/>
	<path id="XMLID_6_" class="st2" d="M310.4,158.3c33.9,18.9,57.5,55.9,57.5,97.7c0,30.7-12.6,59.1-33.1,78.8
		c-20.5,20.5-48,33.1-78.8,33.1s-59.1-12.6-78.8-33.1c-20.5-20.5-33.1-48-33.1-78.8c0-41,22.1-77.2,55.1-96.9
		c7.9-4.7,10.2-14.2,5.5-22.1c-4.7-7.9-14.2-10.2-22.1-5.5c-42.5,25.2-70.9,70.9-70.9,124.5c0,79.6,64.6,144.1,144.1,144.1
		S400.1,335.6,400.1,256c0-53.6-29.9-101.6-74-126c-7.9-3.9-17.3-1.6-22.1,6.3C300.1,144.1,303.3,153.6,310.4,158.3L310.4,158.3z"/>
	<path id="XMLID_7_" class="st2" d="M271.8,256V96.1c0-8.7-7.1-15.8-15.8-15.8c-8.7,0-15.8,7.1-15.8,15.8V256
		c0,8.7,7.1,15.8,15.8,15.8C264.7,271.8,271.8,264.7,271.8,256"/>
</g>
</svg>
