<?xml version="1.0" standalone="no"?>
<!DOCTYPE svg PUBLIC "-//W3C//DTD SVG 20010904//EN"
 "http://www.w3.org/TR/2001/REC-SVG-20010904/DTD/svg10.dtd">
<svg version="1.0" xmlns="http://www.w3.org/2000/svg"
 width="512.000000pt" height="512.000000pt" viewBox="0 0 512.000000 512.000000"
 preserveAspectRatio="xMidYMid meet">

<g transform="translate(0.000000,512.000000) scale(0.100000,-0.100000)"
fill="#000000" stroke="none">
<path d="M358 4710 l-28 -21 0 -315 c0 -301 1 -315 20 -334 30 -30 83 -27 109
6 18 23 21 41 21 119 l0 92 73 5 c80 5 136 29 178 75 88 94 84 239 -8 324 -56
53 -89 63 -218 67 -111 4 -122 2 -147 -18z m258 -154 c21 -18 28 -32 28 -61 0
-56 -38 -85 -110 -85 l-54 0 0 85 0 85 54 0 c43 0 61 -5 82 -24z"/>
<path d="M905 4705 l-25 -24 0 -301 c0 -350 2 -359 78 -360 51 0 66 26 72 127
l5 86 93 -106 c88 -101 96 -107 131 -107 47 0 71 24 71 71 0 28 -13 49 -75
118 l-74 85 32 19 c81 48 117 107 117 192 0 70 -17 112 -65 158 -51 49 -114
67 -237 67 -92 0 -101 -2 -123 -25z m256 -155 c33 -33 33 -61 -1 -91 -19 -17
-105 -33 -121 -23 -5 3 -9 36 -9 75 l0 69 51 0 c43 0 55 -5 80 -30z"/>
<path d="M1650 4715 c-267 -74 -349 -417 -145 -604 71 -64 141 -91 240 -91
143 0 254 69 317 198 30 61 33 75 33 157 -1 77 -5 98 -28 145 -75 155 -255
239 -417 195z m168 -151 c161 -67 177 -293 27 -372 -141 -73 -305 22 -305 178
0 61 17 105 56 144 61 61 149 81 222 50z"/>
<path d="M2345 4705 l-25 -24 0 -245 c0 -211 -2 -247 -16 -261 -15 -14 -19
-14 -51 5 -48 28 -87 26 -112 -6 -12 -15 -21 -33 -21 -40 0 -71 112 -131 208
-111 58 12 115 68 130 130 8 28 12 135 12 277 0 249 -6 281 -52 294 -38 10
-48 7 -73 -19z"/>
<path d="M3279 4717 c-315 -90 -359 -514 -67 -663 70 -36 190 -45 268 -19 70
23 140 90 140 133 0 65 -83 98 -126 51 -53 -59 -152 -70 -228 -25 -155 91
-126 320 48 376 47 15 97 9 158 -19 58 -26 69 -26 102 0 34 27 36 77 3 107
-60 57 -205 85 -298 59z"/>
<path d="M3712 4720 c-22 -9 -42 -46 -42 -76 0 -8 11 -26 25 -39 20 -21 34
-25 80 -25 l55 0 0 -258 c0 -294 2 -302 69 -302 26 0 44 7 57 21 17 19 19 42
22 280 l3 259 53 0 c42 0 57 5 74 23 31 33 29 80 -4 106 -25 19 -39 21 -198
20 -94 0 -181 -4 -194 -9z"/>
<path d="M2610 4700 c-19 -19 -20 -33 -20 -330 0 -293 1 -311 19 -329 26 -26
88 -34 217 -29 97 3 108 6 125 27 25 30 24 76 -1 101 -17 17 -33 20 -115 20
l-95 0 0 64 0 63 85 5 c101 5 125 20 125 78 0 58 -21 70 -123 70 l-87 0 0 64
0 64 96 4 c86 3 98 5 115 27 25 30 24 76 -1 101 -18 18 -33 20 -170 20 -137 0
-152 -2 -170 -20z"/>
<path d="M2473 3198 c-48 -23 -51 -103 -4 -127 13 -8 258 -11 764 -11 l744 0
21 23 c27 29 28 67 3 98 l-19 24 -744 2 c-508 1 -750 -2 -765 -9z"/>
<path d="M2459 2891 c-17 -13 -23 -29 -23 -56 0 -27 6 -43 23 -56 22 -18 49
-19 486 -19 255 0 471 3 480 6 45 18 48 111 5 134 -12 6 -199 10 -483 10 -439
0 -466 -1 -488 -19z"/>
<path d="M3605 2683 c-40 -10 -84 -53 -95 -91 -5 -20 -10 -73 -10 -117 l0 -80
-70 -28 c-39 -16 -103 -52 -143 -81 l-74 -53 -78 45 c-90 52 -146 60 -193 26
-15 -11 -55 -67 -89 -125 -53 -86 -63 -111 -63 -149 0 -64 24 -95 115 -149 79
-46 80 -47 75 -81 -7 -50 -6 -219 2 -261 l6 -36 -73 -42 c-150 -85 -160 -134
-64 -302 48 -83 69 -111 99 -128 54 -30 78 -27 178 25 l90 47 53 -41 c52 -38
143 -89 201 -111 27 -10 27 -12 30 -103 l3 -93 228 -3 227 -2 0 96 c0 91 1 96
23 102 40 10 168 80 212 117 24 19 49 35 55 35 6 0 44 -19 83 -42 84 -50 146
-58 193 -23 37 28 145 215 150 262 8 61 -21 101 -111 155 l-78 47 -1 169 -1
170 74 44 c92 53 116 84 116 146 0 40 -10 64 -64 156 -57 96 -69 111 -108 128
-55 24 -75 20 -177 -36 l-79 -44 -51 41 c-28 22 -93 60 -143 84 l-93 44 0 92
c0 74 -4 98 -20 124 -35 59 -61 68 -195 70 -66 1 -129 -1 -140 -4z m260 -717
c71 -32 116 -75 156 -148 31 -58 34 -70 33 -148 0 -65 -5 -96 -21 -132 -30
-66 -92 -130 -160 -163 -49 -24 -71 -29 -138 -29 -67 -1 -90 4 -137 26 -117
55 -189 166 -190 294 0 89 25 154 83 218 101 110 242 141 374 82z"/>
<path d="M380 2000 c-11 -11 -20 -33 -20 -50 0 -17 9 -39 20 -50 20 -20 33
-20 1088 -20 l1069 0 21 23 c27 29 28 71 2 97 -20 20 -33 20 -1090 20 -1057 0
-1070 0 -1090 -20z"/>
<path d="M403 1720 c-46 -19 -57 -83 -20 -118 l23 -22 1132 0 c1119 0 1132 0
1152 20 27 27 26 81 -1 106 -20 18 -55 19 -1143 21 -634 1 -1130 -2 -1143 -7z"/>
<path d="M386 1409 c-36 -28 -36 -80 0 -108 27 -21 29 -21 1086 -21 l1059 0
24 25 c32 31 32 69 0 100 l-24 25 -1059 0 c-1057 0 -1059 0 -1086 -21z"/>
<path d="M382 1097 c-26 -27 -28 -64 -6 -95 l15 -22 539 0 539 0 15 22 c23 32
20 71 -7 96 l-23 22 -525 0 -526 0 -21 -23z"/>
</g>
</svg>
