<?xml version="1.0" standalone="no"?>
<!DOCTYPE svg PUBLIC "-//W3C//DTD SVG 20010904//EN"
 "http://www.w3.org/TR/2001/REC-SVG-20010904/DTD/svg10.dtd">
<svg version="1.0" xmlns="http://www.w3.org/2000/svg"
 width="512.000000pt" height="512.000000pt" viewBox="0 0 512.000000 512.000000"
 preserveAspectRatio="xMidYMid meet">

<g transform="translate(0.000000,512.000000) scale(0.100000,-0.100000)"
fill="#000000" stroke="none">
<path d="M2322 5110 c-218 -21 -458 -77 -669 -156 -176 -65 -498 -238 -561
-301 -34 -34 -31 -96 7 -134 47 -47 75 -40 230 53 363 218 727 328 1141 345
825 33 1600 -366 2062 -1062 185 -279 311 -611 364 -960 26 -167 26 -503 0
-670 -73 -484 -278 -913 -605 -1267 -113 -123 -116 -152 -29 -244 l51 -54
-322 0 -321 0 0 327 0 327 63 -61 c34 -33 72 -64 84 -67 35 -11 84 17 145 83
208 224 369 519 443 809 43 173 58 292 58 482 0 261 -39 471 -130 700 -338
857 -1247 1351 -2148 1169 -787 -160 -1391 -796 -1512 -1594 -20 -135 -22
-394 -4 -525 96 -691 548 -1269 1191 -1523 229 -91 439 -130 700 -130 307 0
579 62 830 188 38 19 72 35 75 35 3 0 5 -81 5 -179 0 -175 1 -181 24 -208 18
-21 35 -29 77 -33 l54 -6 -75 -36 c-187 -88 -424 -159 -650 -194 -162 -25
-509 -25 -675 0 -586 89 -1102 377 -1477 826 -654 780 -728 1902 -184 2770 77
122 83 155 37 201 -38 38 -100 41 -134 7 -60 -60 -225 -364 -291 -534 -303
-785 -208 -1667 256 -2356 774 -1153 2317 -1481 3494 -742 l102 64 288 0 288
0 28 27 c22 21 28 36 28 71 0 42 -4 48 -108 154 l-109 111 83 99 c655 784 779
1894 312 2806 -270 528 -755 976 -1293 1195 -212 87 -395 137 -625 172 -125
19 -467 27 -598 15z m532 -870 c704 -120 1260 -676 1388 -1388 29 -165 29
-420 -1 -586 -25 -141 -83 -321 -146 -451 -47 -98 -157 -270 -220 -343 l-37
-43 -113 111 c-108 104 -116 110 -155 110 -33 0 -48 -6 -71 -29 l-29 -29 0
-239 0 -239 -82 -46 c-159 -89 -349 -156 -538 -190 -162 -29 -419 -29 -582 0
-712 128 -1262 678 -1389 1390 -30 165 -30 420 0 586 111 619 554 1131 1147
1325 273 90 544 110 828 61z"/>
<path d="M1843 3124 c-20 -10 -40 -32 -52 -58 -36 -76 -371 -965 -371 -985 0
-34 23 -72 51 -87 74 -38 123 0 172 131 l34 90 220 3 220 2 38 -99 c20 -55 45
-107 55 -116 10 -9 36 -19 57 -22 32 -4 45 0 70 21 17 15 34 39 38 55 9 42
-354 1004 -394 1044 -35 36 -93 44 -138 21z m125 -509 c33 -88 63 -168 67
-177 7 -17 -4 -18 -135 -18 -109 0 -141 3 -138 13 46 131 135 354 140 349 4
-4 34 -79 66 -167z"/>
<path d="M2648 3124 c-15 -8 -32 -23 -38 -34 -6 -12 -10 -201 -10 -532 0 -561
-2 -542 58 -567 20 -9 77 -11 176 -9 144 3 146 3 173 31 41 40 39 99 -5 138
-30 27 -38 29 -117 29 l-84 0 -3 451 -3 451 -33 29 c-36 32 -72 37 -114 13z"/>
<path d="M3294 3106 l-34 -34 0 -512 0 -512 34 -34 34 -34 146 0 c161 0 193 8
214 55 23 51 7 107 -39 131 -18 9 -58 14 -109 14 l-80 0 0 440 c0 472 -1 480
-51 506 -45 23 -78 17 -115 -20z"/>
<path d="M754 4366 c-37 -37 -43 -70 -20 -115 15 -28 53 -51 86 -51 51 0 100
49 100 99 0 34 -23 72 -51 87 -45 23 -78 17 -115 -20z"/>
</g>
</svg>
