<?xml version="1.0" standalone="no"?>
<!DOCTYPE svg PUBLIC "-//W3C//DTD SVG 20010904//EN"
 "http://www.w3.org/TR/2001/REC-SVG-20010904/DTD/svg10.dtd">
<svg version="1.0" xmlns="http://www.w3.org/2000/svg"
 width="256.000000pt" height="256.000000pt" viewBox="0 0 256.000000 256.000000"
 preserveAspectRatio="xMidYMid meet">

<g transform="translate(0.000000,256.000000) scale(0.100000,-0.100000)"
fill="#000000" stroke="none">
<path d="M157 616 c-58 -21 -103 -61 -128 -113 -22 -45 -24 -61 -27 -250 l-3
-203 25 -25 c32 -32 70 -32 101 0 21 20 25 34 25 80 l0 55 84 0 84 0 4 -60 c5
-67 18 -86 65 -96 26 -5 37 -1 58 20 l26 27 -3 208 -3 208 -30 49 c-58 93
-179 137 -278 100z m138 -161 c21 -20 25 -34 25 -85 l0 -60 -85 0 -85 0 0 60
c0 75 27 110 85 110 25 0 44 -8 60 -25z"/>
<path d="M632 607 c-21 -23 -22 -30 -22 -294 l0 -272 26 -20 c23 -18 41 -21
121 -21 123 0 153 15 153 75 0 54 -31 75 -109 75 l-51 0 0 220 c0 207 -1 221
-20 240 -27 27 -71 26 -98 -3z"/>
<path d="M1032 607 c-21 -23 -22 -30 -22 -291 l0 -267 25 -24 c22 -23 32 -25
119 -25 112 0 139 8 155 48 10 25 10 35 -3 60 -17 32 -39 42 -103 42 l-42 0
-3 221 c-3 218 -3 221 -27 240 -32 26 -73 24 -99 -4z"/>
</g>
</svg>
